Coordinates
version=1
nRows=22
nColumns=24
inDegrees=yes

Units are S.I. units (second, meters, Newtons, ...)
Angles are in degrees.

endheader
time	pelvis_tilt	pelvis_list	pelvis_rotation	pelvis_tx	pelvis_ty	pelvis_tz	hip_flexion_r	hip_adduction_r	hip_rotation_r	knee_angle_r	ankle_angle_r	subtalar_angle_r	mtp_angle_r	hip_flexion_l	hip_adduction_l	hip_rotation_l	knee_angle_l	ankle_angle_l	subtalar_angle_l	mtp_angle_l	lumbar_extension	lumbar_bending	lumbar_rotation
      0.72383333	     -0.51155910	     -2.71084926	      1.94096790	     -0.45866317	      0.98607798	      0.30074732	     14.82322590	      7.58029282	     -0.36045628	    -21.62492338	      7.73110349	     -8.99050147	      0.20737447	     19.89864933	     -2.80845283	     -0.94834040	    -71.43359260	     -5.55002465	     -5.47208056	     -0.90718825	     -0.99685660	      5.74024408	      1.82265942
      0.72800000	     -0.45858505	     -2.68540637	      1.95592588	     -0.45351029	      0.98706853	      0.30070071	     14.21796103	      7.55669124	     -0.36073390	    -21.22286841	      7.84239667	     -8.89722415	      0.20756243	     20.49953065	     -2.74147823	     -0.85951903	    -71.33164464	     -4.92365353	     -6.03124665	     -0.91114212	     -1.08090766	      5.72136059	      1.87432978
      0.73216667	     -0.36763710	     -2.63141530	      1.98214424	     -0.44832865	      0.98814223	      0.30060422	     13.55416855	      7.49353831	     -0.39079479	    -20.78611723	      7.91847789	     -8.73694348	      0.20396691	     21.02470085	     -2.62743455	     -0.76143193	    -71.12173820	     -4.38609922	     -6.64014819	     -0.93670942	     -1.20555452	      5.67954886	      1.94702839
      0.73633333	     -0.31758793	     -2.57629072	      1.98909402	     -0.44318686	      0.98911358	      0.30053197	     12.95541027	      7.43055150	     -0.41534333	    -20.38973134	      8.00720533	     -8.60231662	      0.20202073	     21.57945611	     -2.51821053	     -0.68551052	    -70.85735624	     -3.78396652	     -7.18949499	     -0.95779291	     -1.29141773	      5.62072223	      2.00538334
      0.74050000	     -0.25831377	     -2.50208820	      1.99091555	     -0.43803012	      0.99008999	      0.30045374	     12.33931612	      7.34520622	     -0.44095598	    -19.98001429	      8.09251412	     -8.43791662	      0.19983368	     22.09452809	     -2.38928292	     -0.62492901	    -70.50706422	     -3.21611052	     -7.72177616	     -0.98687216	     -1.38045716	      5.54316304	      2.07651558
      0.74466667	     -0.17706067	     -2.40982834	      1.98401657	     -0.43284648	      0.99109881	      0.30033872	     11.69820460	      7.23226384	     -0.49285466	    -19.57083078	      8.17942117	     -8.15079604	      0.19005869	     22.54806180	     -2.23521900	     -0.57126442	    -70.06385980	     -2.66806942	     -8.20679666	     -1.09440526	     -1.49217272	      5.47271230	      2.18747645
      0.74883333	     -0.12096488	     -2.32709380	      1.96692132	     -0.42768649	      0.99204735	      0.30026712	     11.07965756	      7.14062673	     -0.49247132	    -19.14877653	      8.25402616	     -8.00325335	      0.18584114	     23.01158419	     -2.10010936	     -0.53060177	    -69.55957702	     -2.13207597	     -8.68338763	     -1.15157762	     -1.58241088	      5.39838934	      2.26243562
      0.75300000	     -0.08424319	     -2.23270550	      1.93470998	     -0.42253897	      0.99292465	      0.30020439	     10.49337758	      7.03331797	     -0.50077742	    -18.74776991	      8.33121437	     -7.81316649	      0.18187967	     23.47134276	     -1.95695975	     -0.50822879	    -68.98850083	     -1.58886969	     -9.10583594	     -1.22187062	     -1.64983907	      5.30431843	      2.36309005
      0.75716667	     -0.09118891	     -2.16440163	      1.89165950	     -0.41743084	      0.99367535	      0.30016564	      9.96368356	      6.95965945	     -0.47275837	    -18.35898247	      8.41906490	     -7.70020461	      0.18150340	     23.96943731	     -1.84827961	     -0.48836868	    -68.37782079	     -1.01591653	     -9.44522802	     -1.24769462	     -1.67777801	      5.23743253	      2.42155739
      0.76133333	      0.00915150	     -2.06355042	      1.84603282	     -0.41224554	      0.99459374	      0.30010634	      9.29271793	      6.84499157	     -0.48838288	    -17.92529891	      8.47420909	     -7.46381984	      0.17755162	     24.29828342	     -1.71327428	     -0.49621442	    -67.65437688	     -0.53241503	     -9.79242197	     -1.33261601	     -1.81392653	      5.14051447	      2.57373845
      0.76550000	      0.04001109	     -1.96146584	      1.78257304	     -0.40710502	      0.99535547	      0.30006226	      8.71878517	      6.72909101	     -0.48201584	    -17.53116660	      8.54891740	     -7.25421320	      0.17481889	     24.68671876	     -1.57804066	     -0.51349266	    -66.88205284	     -0.02730106	    -10.08303238	     -1.42429679	     -1.87736993	      5.03898918	      2.70251954
      0.76966667	      0.08104571	     -1.87055950	      1.71720412	     -0.40197336	      0.99607305	      0.30002219	      8.13320627	      6.62561892	     -0.47305683	    -17.13235819	      8.62293584	     -7.05658671	      0.17304517	     25.04431538	     -1.46007867	     -0.53482262	    -66.05529609	      0.46982411	    -10.32457610	     -1.52171808	     -1.95431181	      4.95257920	      2.82624787
      0.77383333	      0.08357611	     -1.77831587	      1.63891103	     -0.39684843	      0.99669691	      0.29999732	      7.59613311	      6.52044917	     -0.45208465	    -16.74426335	      8.69109802	     -6.86596525	      0.17254046	     25.41991610	     -1.34575564	     -0.56812035	    -65.16643662	      0.93549570	    -10.53001236	     -1.62915924	     -1.98692579	      4.86198101	      2.96094297
      0.77800000	      0.09184201	     -1.69150767	      1.54385678	     -0.39174961	      0.99726912	      0.29998257	      7.06295449	      6.42364084	     -0.40438754	    -16.37391965	      8.75763370	     -6.72052352	      0.17358489	     25.76669161	     -1.24273204	     -0.61413248	    -64.22430544	      1.41718163	    -10.70782055	     -1.69230888	     -2.02899622	      4.79349220	      3.05174396
      0.78216667	      0.10811964	     -1.60375536	      1.45676731	     -0.38663073	      0.99781504	      0.29996125	      6.50790251	      6.32327150	     -0.36616161	    -15.97452256	      8.81705729	     -6.54624326	      0.17567577	     26.07990625	     -1.14144972	     -0.66127311	    -63.21902578	      1.83871625	    -10.84149305	     -1.76753099	     -2.08191950	      4.70764429	      3.18604144
      0.78633333	      0.09434394	     -1.52275783	      1.36583414	     -0.38151959	      0.99825967	      0.29994299	      5.99375240	      6.22813198	     -0.33246785	    -15.58834261	      8.88163738	     -6.36631151	      0.17958166	     26.40638883	     -1.04845380	     -0.71004009	    -62.16292033	      2.22827722	    -10.94285908	     -1.84860738	     -2.09754369	      4.63082293	      3.32684236
      0.79050000	      0.10684016	     -1.46022340	      1.29192810	     -0.37640265	      0.99868781	      0.29990731	      5.44297205	      6.15059916	     -0.32774928	    -15.17946505	      8.95039554	     -6.15069931	      0.18691821	     26.68609791	     -0.97193614	     -0.73994050	    -61.05677052	      2.56867770	    -11.00293785	     -1.98954551	     -2.14477677	      4.57193449	      3.51696025
      0.79466667	      0.08979897	     -1.38788183	      1.18288470	     -0.37130159	      0.99902945	      0.29990229	      4.93888723	      6.06472198	     -0.27016474	    -14.80285342	      9.00671488	     -6.00601015	      0.19328040	     26.96874861	     -0.90003065	     -0.81178264	    -59.89292630	      2.92684874	    -11.05943974	     -2.07415416	     -2.15511604	      4.50800758	      3.61942532
      0.79883333	      0.07713376	     -1.31156037	      1.08834616	     -0.36618517	      0.99933715	      0.29987668	      4.42354229	      5.97071667	     -0.23357991	    -14.41117986	      9.06368663	     -5.83998901	      0.20134725	     27.22025987	     -0.81529039	     -0.86546282	    -58.66742664	      3.22328533	    -11.08858555	     -2.16276814	     -2.16884386	      4.43404001	      3.75484529
      0.80300000	      0.06052400	     -1.26214346	      1.00000005	     -0.36106383	      0.99957046	      0.29984708	      3.91244406	      5.90456939	     -0.22089938	    -14.01502169	      9.12123108	     -5.66091203	      0.21339639	     27.46213777	     -0.76326469	     -0.91986118	    -57.40619797	      3.48481947	    -11.09381372	     -2.27836296	     -2.17327746	      4.38894351	      3.91890537
      0.80716667	      0.04494975	     -1.21142340	      0.90983232	     -0.35595082	      0.99975828	      0.29981735	      3.40004969	      5.83770102	     -0.18386597	    -13.61818454	      9.17969682	     -5.50078393	      0.22553230	     27.67791242	     -0.70788281	     -0.97043002	    -56.09260930	      3.72748415	    -11.07624038	     -2.37662402	     -2.18765137	      4.34748544	      4.04640276
      0.81133333	      0.03617035	     -1.15978195	      0.83389521	     -0.35079683	      0.99993061	      0.29975898	      2.87089715	      5.76390111	     -0.19957716	    -13.20177154	      9.23824108	     -5.32166688	      0.24416270	     27.85877042	     -0.65000520	     -1.02489087	    -54.72158829	      3.91373710	    -11.05828278	     -2.52259706	     -2.20261453	      4.30255206	      4.21898665
